/* XPM */
static char *_540369672365[] = {
/* columns rows colors chars-per-pixel */
"64 64 2 1 ",
"  c #2C414F",
". c None",
/* pixels */
"..........................            ..........................",
"......................                    ......................",
"....................                         ...................",
".................                              .................",
"................          ....    ....           ...............",
"..............          .              .          ..............",
".............                                      .............",
"...........       ..                        ..       ...........",
"..........      ..                            ..      ..........",
".........      ..               ......          .      .........",
"........                        ........                ........",
".......              ..         ........                 .......",
".......             ....        ........                 .......",
"......     .      ......     ..........             .     ......",
".....     .      ......................              .     .....",
".....    .      .........................             .     ....",
"....     .       ..........................     .      .    ....",
"...     .         ..........................   ...     .     ...",
"...                .......................... .....          ...",
"...               .................................           ..",
"..               ..............  ...................          ..",
"..               .............    ...................         ..",
"..   .          .............      ..................     .    .",
".    .         .............        ................      .    .",
".    .    .... ............          .............        .    .",
".    .    ...............              ...........             .",
".   .     ..............                ..........         .    ",
"         ..............                   ........              ",
"         ............                      .......              ",
"         ............                      ........             ",
"         ...........                        .......             ",
"         ...........                        .......             ",
"    .        .......                        ...........    .    ",
"    .        .......                        ...........    .    ",
"    .         ......                        ...........    .    ",
"    .         ......                        ...........    .    ",
"    .         .......                       ...........    .    ",
".             .......                      ...........          ",
".              .......                    ............         .",
".             ..........      .  .      .........  ...         .",
".           ..................    ...............              .",
"..         ..................      .............               .",
"..    .     ................        ...........          .    ..",
"..    .     ...............          ..........          .    ..",
"...    .     .............             .......          .    ...",
"...    .     ..... ..........................           .    ...",
"....    .     ...   ..........................         .     ...",
"....           .      .........................             ....",
".....                  .........................           .....",
".....                    ......................            .....",
"......     .             .........      ......      .     ......",
".......     .           ........        ....       .     .......",
"........     .          ........         ..       .      .......",
"........      .         ........                 .      ........",
".........                  .....                       .........",
"..........                                            ..........",
"............                                .        ...........",
".............       ...                   ..       .............",
"..............         ..              ..         ..............",
"................             ......             ................",
"..................                             .................",
"....................                        ....................",
".......................                  .......................",
"...........................          ..........................."
};
