/* XPM */
static char *_540369678863[] = {
/* columns rows colors chars-per-pixel */
"32 32 2 1 ",
"  c #2C414F",
". c None",
/* pixels */
"............        ............",
".........              .........",
".......                  .......",
"......                    ......",
".....                      .....",
"....            ....        ....",
"...       ..    ....         ...",
"..      ............          ..",
"..       ............   .     ..",
".        ................      .",
".        ......  .........     .",
".       ......    ........     .",
"     ........      ......       ",
"     ......          ....       ",
"     .....            ...       ",
"     .....            ...       ",
"       ...            .....     ",
"       ...            .....     ",
"       ...            .....     ",
"       ....          ......     ",
".     .........  .......       .",
".     ........    .....        .",
".      ......      ....        .",
"..     .   ............       ..",
"..          ............      ..",
"...         ....    ..       ...",
"....        ....            ....",
".....                      .....",
"......                    ......",
".......                  .......",
".........              .........",
"............        ............"
};
