/* XPM */
static char *_540369662873[] = {
/* columns rows colors chars-per-pixel */
"128 128 2 1 ",
"  c #2C414F",
". c None",
/* pixels */
".........................................................               ........................................................",
"...................................................                          ...................................................",
"...............................................                                  ...............................................",
"............................................                                         ...........................................",
".........................................                                              .........................................",
"......................................                                                    ......................................",
"....................................                                                        ....................................",
"..................................                                                            ..................................",
"................................                     .......        .......                     ................................",
"...............................                  ..........         ...........                  ...............................",
".............................                   ......                    ......                   .............................",
"............................                    ..                                                   ...........................",
"..........................                                                                            ..........................",
".........................              .                                                ..             .........................",
"........................             ...                                                ...             ........................",
".......................            ....                                                  ....             ......................",
".....................            ....                                                      ....            .....................",
"....................            ....                                                        ....            ....................",
"...................           ....                              ..........                    ....           ...................",
"..................            ...                               ..............                  ..            ..................",
".................             .                                 .................                .             .................",
"................                             .                  .................                               ................",
"................                           ....                 .................                                ...............",
"...............                          ......                 .................                                ...............",
"..............                          ........                ................                                  ..............",
".............                         ..........                ................                        .          .............",
"............          ..             ...........            ...................                         ..          ............",
"............         ...           ..............      ........................                         ...         ............",
"...........         ...           ...............  ............................                          ...         ...........",
"..........         ...           ..............................................                           ...         ..........",
"..........         ..           .................................................                          ...        ..........",
".........         ..            ...................................................                         ..         .........",
".........        ...             ....................................................           ..           ..         ........",
"........        ...               ....................................................         ....          ...        ........",
".......         ..                 .....................................................      ......          ..         .......",
".......         ..                  .....................................................    ........                    .......",
"......                               .....................................................  ..........                    ......",
"......                               .................................................................                    ......",
"......                              ...................................................................                    .....",
".....                              ............................  .......................................                   .....",
".....                              ...........................    ......................................                   .....",
"....                              ...........................      ......................................                   ....",
"....                             ...........................        .....................................                   ....",
"....       ..                    ..........................          .....................................         ..        ...",
"...        ..                   ...........................           ....................................         ..        ...",
"...        ..                  ...........................             ....................................        ...       ...",
"...       ...        .         ..........................               ..................................          ..       ...",
"..        ..         ...      .........................                  ..............................             ..        ..",
"..        ..        ......    ........................                    ...........................               ..        ..",
"..       ...        .................................                      ........................                  ..       ..",
"..       ..         ................................                        .......................                  ..       ..",
"..       ..        ...............................                            ......................                 ..        .",
".        ..        ..............................                              .....................                 ..        .",
".        ..        ............................                                  ...................                 ...       .",
".        .         ...........................                                    ...................                          .",
".                 ...........................                                      ..................                          .",
".                 ..........................                                         ................                           ",
".                 .........................                                          ................                           ",
"                  ........................                                            ...............                           ",
"                  .......................                                              ..............                           ",
"                  .......................                                               ..............                          ",
"                  ......................                                                ..............                          ",
"                  ......................                                                ..............                          ",
"        ..        ......................                                                ..............                 ..       ",
"        ..                 .............                                                 .....................         ..       ",
"        ..                 ............                                                  .....................        ...       ",
"        ..                 .............                                                 .....................        ..        ",
"        ..                 .............                                                 .....................        ..        ",
"        ..                 .............                                                ......................        ..        ",
".       ..                 .............                                                ......................        ..        ",
".       ..                 .............                                                ......................        ..        ",
".       ..                 ..............                                               ......................        ..       .",
".       ..                  .............                                              .......................        ..       .",
".       ...                 ..............                                            ........................        ..       .",
".        ..                 ..............                                            .......................         ..       .",
".                           ...............                                          ........................                  .",
"..                           ...............                                        .........................                  .",
"..                           ................                 .  .                 .........................                  ..",
"..                           ..................              ..   .              .................. ........                  ..",
"..                         ......................         ....    ....         ...................    ......                  ..",
"...                     .....................................      ...............................       ..                   ..",
"...                   ......................................        .............................                            ...",
"...                   ......................................         ............................                            ...",
"...         .         .....................................           ..........................                   ..        ...",
"....       ...         ..................................              .........................                  ...       ....",
"....        ..         .................................                .......................                   ..        ....",
"....        ...         ...............................                  .....................                    ..        ....",
".....        ..         .............................                      ..................                    ..        .....",
".....        ...         ..........................                          ................                    ..        .....",
"......        ..         ...................................................................                    ..         .....",
"......        ...         .................................................................                     ..        ......",
".......        ..          .........   ....................................................                    ..         ......",
".......        ...          .......     ....................................................                  ...        .......",
"........        ..          ......       ....................................................                 ..         .......",
"........                     ....         ....................................................                          ........",
".........                     ..            ...................................................                         ........",
".........                                    ...................................................                       .........",
"..........                                     .................................................                      ..........",
"...........                                      ..............................................                       ..........",
"...........                                       ..........................   ...............                       ...........",
"............           .                         ........................      ..............           ..          ............",
".............         ...                        ...............                ...........            ...          ............",
".............          ...                      ................                ..........            ...          .............",
"..............          ...                     ................                 .......             ...          ..............",
"...............          ...                   .................                 .....              ...          ...............",
"................          ...                  .................                  ...              ...          ................",
".................          ...                 .................                                  ...           ................",
"..................          ....                ................                                 ...           .................",
"...................          ...                   .............                                 ..           ..................",
"....................                                    ........                                             ...................",
".....................                                                                                       ....................",
"......................                                                                                     .....................",
".......................                                                                 .                .......................",
"........................              ....                                            ....              ........................",
".........................              .....                                        .....              .........................",
"...........................              ......                                  ......               ..........................",
"............................                ......                             ......               ............................",
"..............................                ....                            ....                 .............................",
"...............................                           ............                           ...............................",
".................................                         ............                         .................................",
"...................................                                                           ..................................",
".....................................                                                       ....................................",
".......................................                                                  .......................................",
".........................................                                              .........................................",
"............................................                                        ............................................",
"................................................                                 ...............................................",
"....................................................                        ....................................................",
"...........................................................          ..........................................................."
};
