/* XPM */
static char *_540369691715[] = {
/* columns rows colors chars-per-pixel */
"16 16 2 1 ",
"  c #2C414F",
". c None",
/* pixels */
".....      .....",
"...          ...",
"..      .     ..",
".    .  ..     .",
".    ......    .",
"    ...  ....   ",
"   ...    ..    ",
"   ..      .    ",
"    .      ...  ",
"    .      ..   ",
"   ....  ...    ",
".    ......    .",
".     ..  .    .",
"..     .      ..",
"...          ...",
".....      ....."
};
